<?xml version="1.0" standalone="no"?>
<!DOCTYPE svg PUBLIC "-//W3C//DTD SVG 20010904//EN"
 "http://www.w3.org/TR/2001/REC-SVG-20010904/DTD/svg10.dtd">
<svg version="1.0" xmlns="http://www.w3.org/2000/svg"
 width="109.000000pt" height="109.000000pt" viewBox="0 0 109.000000 109.000000"
 preserveAspectRatio="xMidYMid meet">
<metadata>
Created by potrace 1.11, written by Peter Selinger 2001-2013
</metadata>
<g transform="translate(0.000000,109.000000) scale(0.100000,-0.100000)"
fill="#000000" stroke="none">
<path d="M394 1076 c-144 -45 -267 -156 -336 -302 -30 -63 -33 -79 -36 -185
-4 -103 -1 -123 21 -187 30 -86 79 -163 141 -220 l46 -42 0 -70 c0 -56 3 -70
15 -70 12 0 15 13 15 60 l0 60 50 -25 c191 -97 422 -62 586 87 65 60 109 127
140 215 33 94 34 240 2 334 -54 160 -169 276 -335 336 -52 19 -83 23 -166 22
-56 0 -120 -6 -143 -13z m226 -6 c85 -14 213 -76 269 -131 205 -204 208 -538
7 -734 -155 -151 -393 -188 -586 -90 -46 23 -50 28 -50 60 0 24 -5 35 -15 35
-8 0 -15 -9 -15 -20 0 -29 -11 -25 -56 24 -90 95 -137 214 -137 351 0 100 11
152 54 238 76 154 258 268 439 276 14 0 54 -4 90 -9z"/>
<path d="M458 1013 c-18 -3 -28 -11 -28 -21 0 -13 -2 -14 -8 -4 -6 9 -15 10
-35 3 -19 -8 -24 -15 -20 -31 7 -25 19 -34 36 -23 21 13 39 15 134 17 l93 1 0
29 c0 25 -3 28 -25 24 -14 -3 -25 -2 -25 2 0 8 -79 10 -122 3z"/>
<path d="M663 993 c-18 -7 -17 -53 1 -53 17 0 51 -17 93 -47 17 -13 36 -23 42
-23 6 0 11 -7 11 -15 0 -8 7 -15 15 -15 8 0 15 -5 15 -12 0 -6 10 -25 23 -42
13 -17 30 -46 38 -64 11 -25 19 -32 34 -28 19 5 19 4 3 -8 -26 -19 -22 -25 12
-24 24 1 30 5 24 17 -3 9 -7 22 -7 29 0 6 -4 12 -9 12 -5 0 -6 5 -3 10 3 6 -1
13 -9 16 -9 3 -14 10 -11 14 11 17 -49 105 -64 96 -7 -4 -8 -1 -5 8 7 18 -6
21 -24 6 -9 -7 -9 -7 -2 2 15 18 12 31 -4 25 -10 -4 -13 -1 -9 9 3 7 0 14 -6
14 -7 0 -21 9 -33 20 -12 11 -28 20 -35 20 -7 0 -13 5 -13 10 0 6 -9 10 -19
10 -11 0 -23 5 -26 10 -7 11 -13 11 -32 3z m27 -33 c0 -5 -2 -10 -4 -10 -3 0
-8 5 -11 10 -3 6 -1 10 4 10 6 0 11 -4 11 -10z m192 -142 c-7 -7 -12 -8 -12
-2 0 14 12 26 19 19 2 -3 -1 -11 -7 -17z"/>
<path d="M298 949 c-16 -11 -28 -27 -28 -34 0 -7 -8 -12 -17 -11 -12 1 -17 -5
-15 -16 2 -12 -2 -16 -12 -12 -16 6 -80 -72 -70 -87 3 -5 0 -9 -6 -9 -7 0 -10
-6 -7 -12 2 -7 -2 -18 -10 -23 -7 -6 -16 -27 -20 -47 -4 -29 -2 -39 11 -44 20
-8 49 14 42 33 -3 7 -1 13 4 13 6 0 10 8 10 18 0 10 7 28 16 40 14 20 14 23 0
28 -9 3 -16 11 -16 16 0 6 7 5 15 -2 13 -11 20 -8 45 16 16 16 30 35 30 42 0
6 6 12 13 12 24 0 65 45 65 73 0 32 -13 34 -50 6z m32 -29 c0 -5 -9 -10 -21
-10 -11 0 -17 5 -14 10 3 6 13 10 21 10 8 0 14 -4 14 -10z m-105 -108 c-3 -3
-11 0 -18 7 -9 10 -8 11 6 5 10 -3 15 -9 12 -12z m-80 -122 c3 -5 1 -10 -4
-10 -6 0 -11 5 -11 10 0 6 2 10 4 10 3 0 8 -4 11 -10z"/>
<path d="M467 910 c-106 -27 -192 -98 -241 -200 -26 -56 -31 -76 -31 -145 0
-68 4 -89 28 -138 61 -123 166 -196 293 -205 154 -10 290 78 351 228 28 71 24
180 -11 256 -67 147 -244 240 -389 204z"/>
<path d="M160 372 c-19 -16 -20 -20 -9 -33 8 -8 19 -24 25 -34 7 -11 19 -19
29 -17 13 3 15 -1 10 -19 -4 -13 -3 -19 3 -15 5 3 12 -3 15 -14 3 -11 11 -20
17 -20 7 0 10 7 6 16 -9 23 3 37 20 23 11 -9 14 -8 14 5 0 9 -6 16 -12 16 -12
0 -18 7 -63 78 -23 37 -26 38 -55 14z m30 -16 c0 -3 -4 -8 -10 -11 -5 -3 -10
-1 -10 4 0 6 5 11 10 11 6 0 10 -2 10 -4z"/>
<path d="M855 340 c-27 -39 -27 -41 -10 -60 24 -26 33 -25 47 5 10 21 8 28 -8
41 -18 14 -18 14 5 4 27 -14 45 -2 39 26 -6 36 -43 28 -73 -16z m50 20 c3 -5
1 -10 -4 -10 -6 0 -11 5 -11 10 0 6 2 10 4 10 3 0 8 -4 11 -10z m-25 -60 c0
-13 -11 -13 -30 0 -12 8 -11 10 8 10 12 0 22 -4 22 -10z"/>
<path d="M782 264 c-12 -8 -22 -22 -22 -30 0 -8 -4 -13 -9 -10 -15 9 -71 -15
-71 -31 0 -20 19 -53 31 -53 5 0 15 14 21 31 7 22 14 27 21 20 19 -19 27 -12
27 21 0 30 1 31 14 12 8 -10 18 -16 22 -12 4 4 1 14 -6 23 -7 9 -10 19 -6 23
4 4 16 -4 26 -18 15 -19 20 -21 20 -8 0 16 -25 48 -38 48 -4 0 -18 -7 -30 -16z"/>
<path d="M286 229 c-14 -20 -13 -23 11 -42 21 -17 26 -18 34 -6 7 11 9 10 9
-5 0 -12 5 -16 15 -12 8 3 15 0 15 -7 0 -7 20 -18 45 -25 59 -16 63 -15 68 6
4 16 5 16 6 -1 0 -10 5 -15 11 -12 6 3 10 2 10 -4 0 -5 12 -8 28 -7 15 2 32 4
39 5 6 0 14 9 16 19 4 16 5 16 6 0 1 -13 7 -17 24 -14 12 3 28 5 35 5 6 1 12
12 12 25 0 21 -5 25 -30 24 -16 -1 -30 -4 -30 -8 0 -9 -120 -5 -164 5 -53 11
-126 47 -126 61 0 21 -17 17 -34 -7z"/>
</g>
</svg>
